<svg width="17" height="16" viewBox="0 0 17 16" fill="none" xmlns="http://www.w3.org/2000/svg">
<path d="M8.18994 16C6.81128 16 5.68994 14.8787 5.68994 13.5C5.68994 13.224 5.91394 13 6.18994 13C6.46594 13 6.68994 13.224 6.68994 13.5C6.68994 14.3274 7.36255 15 8.18994 15C9.01721 15 9.68994 14.3274 9.68994 13.5C9.68994 13.224 9.91394 13 10.1899 13C10.4659 13 10.6899 13.224 10.6899 13.5C10.6899 14.8787 9.5686 16 8.18994 16Z" fill="#878787"/>
<path d="M13.6897 14H2.6897C2.04626 14 1.52295 13.4767 1.52295 12.8334C1.52295 12.4919 1.67163 12.1687 1.93103 11.9467C2.94495 11.09 3.52295 9.84473 3.52295 8.52539V6.66663C3.52295 4.09338 5.61633 2 8.1897 2C10.7629 2 12.8563 4.09338 12.8563 6.66663V8.52539C12.8563 9.84473 13.4343 11.09 14.4417 11.942C14.7076 12.1687 14.8563 12.4919 14.8563 12.8334C14.8563 13.4767 14.333 14 13.6897 14ZM8.1897 3C6.1676 3 4.52295 4.64465 4.52295 6.66663V8.52539C4.52295 10.1393 3.81567 11.6633 2.58301 12.7053C2.55969 12.7253 2.52295 12.7667 2.52295 12.8334C2.52295 12.924 2.599 13 2.6897 13H13.6897C13.7803 13 13.8563 12.924 13.8563 12.8334C13.8563 12.7667 13.8197 12.7253 13.7976 12.7067C12.5636 11.6633 11.8563 10.1393 11.8563 8.52539V6.66663C11.8563 4.64465 10.2117 3 8.1897 3Z" fill="#878787"/>
<path d="M8.18994 3C7.91394 3 7.68994 2.776 7.68994 2.5V0.5C7.68994 0.223999 7.91394 0 8.18994 0C8.46594 0 8.68994 0.223999 8.68994 0.5V2.5C8.68994 2.776 8.46594 3 8.18994 3Z" fill="#878787"/>
</svg>
