<svg width="18" height="18" viewBox="0 0 18 18" fill="none" xmlns="http://www.w3.org/2000/svg">
<path d="M7.00006 1.00006V7.00006H1.00006V1.00006H7.00006ZM7.12006 5.81483e-05H0.880058C0.764123 -0.00128228 0.649089 0.0205641 0.541717 0.0643136C0.434345 0.108063 0.336801 0.172833 0.254817 0.254817C0.172833 0.336801 0.108063 0.434345 0.0643137 0.541717C0.0205642 0.649089 -0.00128228 0.764123 5.81482e-05 0.880058V7.12006C-0.00128228 7.23599 0.0205642 7.35103 0.0643137 7.4584C0.108063 7.56577 0.172833 7.66332 0.254817 7.7453C0.336801 7.82728 0.434345 7.89205 0.541717 7.9358C0.649089 7.97955 0.764123 8.0014 0.880058 8.00006H7.12006C7.23599 8.0014 7.35103 7.97955 7.4584 7.9358C7.56577 7.89205 7.66332 7.82728 7.7453 7.7453C7.82728 7.66332 7.89205 7.56577 7.9358 7.4584C7.97955 7.35103 8.0014 7.23599 8.00006 7.12006V0.880058C8.0014 0.764123 7.97955 0.649089 7.9358 0.541717C7.89205 0.434345 7.82728 0.336801 7.7453 0.254817C7.66332 0.172833 7.56577 0.108063 7.4584 0.0643136C7.35103 0.0205641 7.23599 -0.00128228 7.12006 5.81483e-05Z" fill="#8F8F8F"/>
<path d="M17.0001 1.00006V7.00006H11.0001V1.00006H17.0001ZM17.1201 5.81483e-05H10.8801C10.7641 -0.00128228 10.6491 0.0205641 10.5417 0.0643136C10.4343 0.108063 10.3368 0.172833 10.2548 0.254817C10.1728 0.336801 10.1081 0.434345 10.0643 0.541717C10.0206 0.649089 9.99872 0.764123 10.0001 0.880058V7.12006C9.99872 7.23599 10.0206 7.35103 10.0643 7.4584C10.1081 7.56577 10.1728 7.66332 10.2548 7.7453C10.3368 7.82728 10.4343 7.89205 10.5417 7.9358C10.6491 7.97955 10.7641 8.0014 10.8801 8.00006H17.1201C17.236 8.0014 17.351 7.97955 17.4584 7.9358C17.5658 7.89205 17.6633 7.82728 17.7453 7.7453C17.8273 7.66332 17.8921 7.56577 17.9358 7.4584C17.9796 7.35103 18.0014 7.23599 18.0001 7.12006V0.880058C18.0014 0.764123 17.9796 0.649089 17.9358 0.541717C17.8921 0.434345 17.8273 0.336801 17.7453 0.254817C17.6633 0.172833 17.5658 0.108063 17.4584 0.0643136C17.351 0.0205641 17.236 -0.00128228 17.1201 5.81483e-05Z" fill="#8F8F8F"/>
<path d="M7.00006 11.0001V17.0001H1.00006V11.0001H7.00006ZM7.12006 10.0001H0.880058C0.764123 9.99872 0.649089 10.0206 0.541717 10.0643C0.434345 10.1081 0.336801 10.1728 0.254817 10.2548C0.172833 10.3368 0.108063 10.4343 0.0643137 10.5417C0.0205642 10.6491 -0.00128228 10.7641 5.81482e-05 10.8801V17.1201C-0.00128228 17.236 0.0205642 17.351 0.0643137 17.4584C0.108063 17.5658 0.172833 17.6633 0.254817 17.7453C0.336801 17.8273 0.434345 17.8921 0.541717 17.9358C0.649089 17.9796 0.764123 18.0014 0.880058 18.0001H7.12006C7.23599 18.0014 7.35103 17.9796 7.4584 17.9358C7.56577 17.8921 7.66332 17.8273 7.7453 17.7453C7.82728 17.6633 7.89205 17.5658 7.9358 17.4584C7.97955 17.351 8.0014 17.236 8.00006 17.1201V10.8801C8.0014 10.7641 7.97955 10.6491 7.9358 10.5417C7.89205 10.4343 7.82728 10.3368 7.7453 10.2548C7.66332 10.1728 7.56577 10.1081 7.4584 10.0643C7.35103 10.0206 7.23599 9.99872 7.12006 10.0001Z" fill="#8F8F8F"/>
<path d="M17.0001 11.0001V17.0001H11.0001V11.0001H17.0001ZM17.1201 10.0001H10.8801C10.7641 9.99872 10.6491 10.0206 10.5417 10.0643C10.4343 10.1081 10.3368 10.1728 10.2548 10.2548C10.1728 10.3368 10.1081 10.4343 10.0643 10.5417C10.0206 10.6491 9.99872 10.7641 10.0001 10.8801V17.1201C9.99872 17.236 10.0206 17.351 10.0643 17.4584C10.1081 17.5658 10.1728 17.6633 10.2548 17.7453C10.3368 17.8273 10.4343 17.8921 10.5417 17.9358C10.6491 17.9796 10.7641 18.0014 10.8801 18.0001H17.1201C17.236 18.0014 17.351 17.9796 17.4584 17.9358C17.5658 17.8921 17.6633 17.8273 17.7453 17.7453C17.8273 17.6633 17.8921 17.5658 17.9358 17.4584C17.9796 17.351 18.0014 17.236 18.0001 17.1201V10.8801C18.0014 10.7641 17.9796 10.6491 17.9358 10.5417C17.8921 10.4343 17.8273 10.3368 17.7453 10.2548C17.6633 10.1728 17.5658 10.1081 17.4584 10.0643C17.351 10.0206 17.236 9.99872 17.1201 10.0001Z" fill="#8F8F8F"/>
</svg>
