<svg width="32" height="32" viewBox="0 0 22 22" fill="none" xmlns="http://www.w3.org/2000/svg">
<path d="M8.81758 21.3409C7.74951 21.3409 6.94531 20.4532 6.94531 19.3546C6.94531 18.2612 7.74951 17.4336 8.81758 17.4336C9.88017 17.4336 10.7429 18.2612 10.7429 19.3546C10.7425 20.4532 9.87975 21.3409 8.81758 21.3409Z" fill="#3A3A3A"/>
<path d="M18.608 14.2234C18.4901 14.7461 18.4486 15.6621 18.1341 16.0856C17.9443 16.3412 17.6594 16.5007 17.2971 16.5007H6.46234C5.76417 16.5007 5.19692 15.9089 5.19692 15.1726C5.19692 14.696 3.8999 7.9286 3.41003 5.38846C3.3082 4.86131 2.81075 4.42984 2.30034 4.42497L1.26935 4.41457C-0.117304 4.41457 0.00260702 3.02964 0.00260702 3.02964C0.0295188 2.54085 0.187765 2.24909 0.383436 2.07721C0.775689 1.73286 1.66111 1.85531 2.15982 1.85443L3.06207 1.85266C4.61412 1.85266 5.22643 2.78664 5.46709 3.5441C5.62912 4.05435 5.71203 4.92615 5.82101 5.45153L7.37012 12.8895C7.47952 13.4149 7.98243 13.8406 8.49291 13.8406H15.5801C16.091 13.8406 16.5901 13.4149 16.6949 12.8883L17.8518 7.09849C18.0012 6.41856 18.2418 6.09324 18.4885 5.955C18.9388 5.70094 19.8819 6.07524 20.0595 6.57871C20.3229 7.32798 20.0178 8.59776 20.0178 8.59776C20.0178 8.59776 19.1109 12.0036 18.608 14.2234Z" fill="#3A3A3A"/>
<path d="M15.1411 21.3409C14.0772 21.3409 13.2734 20.4532 13.2734 19.3546C13.2734 18.2612 14.0773 17.4336 15.1411 17.4336C16.2037 17.4336 17.0701 18.2612 17.0701 19.3546C17.0702 20.4532 16.2037 21.3409 15.1411 21.3409Z" fill="#3A3A3A"/>
<path d="M8.8825 12.2702C8.5332 12.2702 8.25 11.9779 8.25 11.6181C8.25 11.2591 8.53327 10.9668 8.8825 10.9668C9.23263 10.9668 9.51541 11.2591 9.51541 11.6181C9.51541 11.978 9.23305 12.2702 8.8825 12.2702Z" fill="#3A3A3A"/>
<path d="M11.4142 12.2702C11.0649 12.2702 10.7817 11.9779 10.7817 11.6181C10.7817 11.2591 11.0649 10.9668 11.4142 10.9668C11.7631 10.9668 12.0471 11.2591 12.0471 11.6181C12.0472 11.978 11.7631 12.2702 11.4142 12.2702Z" fill="#3A3A3A"/>
<path d="M13.9454 12.2702C13.5957 12.2702 13.3125 11.9779 13.3125 11.6181C13.3125 11.2591 13.5957 10.9668 13.9454 10.9668C14.2943 10.9668 14.5779 11.2591 14.5779 11.6181C14.5779 11.978 14.2942 12.2702 13.9454 12.2702Z" fill="#3A3A3A"/>
<path d="M7.61625 9.66536C7.2678 9.66536 6.98291 9.37438 6.98291 9.01483C6.98291 8.65563 7.2678 8.36328 7.61625 8.36328C7.96722 8.36328 8.25 8.65556 8.25 9.01483C8.24965 9.37438 7.9668 9.66536 7.61625 9.66536Z" fill="#3A3A3A"/>
<path d="M10.1485 8.36328C10.4978 8.36328 10.781 8.65491 10.781 9.01432C10.781 9.37388 10.4978 9.66536 10.1485 9.66536C9.7989 9.66536 9.51562 9.37388 9.51562 9.01432C9.51563 8.65491 9.7989 8.36328 10.1485 8.36328Z" fill="#3A3A3A"/>
<path d="M12.6798 8.36328C13.0291 8.36328 13.3123 8.65491 13.3123 9.01432C13.3123 9.37388 13.0291 9.66536 12.6798 9.66536C12.3301 9.66536 12.0469 9.37388 12.0469 9.01432C12.0469 8.65491 12.3301 8.36328 12.6798 8.36328Z" fill="#3A3A3A"/>
<path d="M15.2106 8.36328C15.5598 8.36328 15.843 8.65491 15.843 9.01432C15.843 9.37388 15.5598 9.66536 15.2106 9.66536C14.8608 9.66536 14.5776 9.37388 14.5776 9.01432C14.5776 8.65491 14.8608 8.36328 15.2106 8.36328Z" fill="#3A3A3A"/>
<path d="M13.9454 7.05969C13.5957 7.05969 13.3125 6.76741 13.3125 6.40908C13.3125 6.04901 13.5957 5.75781 13.9454 5.75781C14.2943 5.75781 14.5779 6.04858 14.5779 6.40908C14.5779 6.76741 14.2942 7.05969 13.9454 7.05969Z" fill="#3A3A3A"/>
<path d="M11.4142 7.05969C11.0649 7.05969 10.7817 6.76741 10.7817 6.40908C10.7817 6.04901 11.0649 5.75781 11.4142 5.75781C11.7631 5.75781 12.0471 6.04858 12.0471 6.40908C12.0472 6.76741 11.7631 7.05969 11.4142 7.05969Z" fill="#3A3A3A"/>
<path d="M8.8825 7.05969C8.5332 7.05969 8.25 6.76741 8.25 6.40908C8.25 6.04901 8.53327 5.75781 8.8825 5.75781C9.23263 5.75781 9.51541 6.04858 9.51541 6.40908C9.51541 6.76741 9.23305 7.05969 8.8825 7.05969Z" fill="#3A3A3A"/>
</svg>
