<svg width="20" height="20" viewBox="0 0 20 20" fill="none" xmlns="http://www.w3.org/2000/svg">
<path d="M13.5731 6.42686C13.3269 6.18062 12.9281 6.18062 12.6825 6.42686L9.99686 9.11248L7.34873 6.46438C7.10435 6.22 6.70873 6.22 6.465 6.46438C6.22062 6.70876 6.22062 7.10438 6.465 7.3481L9.11314 9.99624L6.4469 12.6625C6.20065 12.9087 6.20065 13.3075 6.4469 13.5531C6.69314 13.7988 7.0919 13.7988 7.33752 13.5531L10.0038 10.8869L12.6519 13.535C12.8963 13.7793 13.2919 13.7793 13.5357 13.535C13.78 13.2906 13.78 12.895 13.5357 12.6512L10.8875 10.0031L13.5732 7.31748C13.8194 7.07186 13.8194 6.67252 13.5731 6.42686ZM10 0C4.47686 0 0 4.47686 0 10C0 15.5231 4.47686 20 10 20C15.5225 20 20 15.5225 20 10C20 4.47752 15.5231 0 10 0ZM10 18.75C5.16748 18.75 1.25 14.8325 1.25 10C1.25 5.16748 5.16748 1.25 10 1.25C14.8325 1.25 18.75 5.16748 18.75 10C18.75 14.8325 14.8325 18.75 10 18.75Z" fill="black"/>
</svg>
