<svg width="100" height="100" viewBox="0 0 100 100" fill="none" xmlns="http://www.w3.org/2000/svg">
<path d="M50 0C22.4289 0 0 22.4289 0 50C0 77.5711 22.4289 100 50 100C77.5711 100 100 77.5711 100 50C100 22.4289 77.5711 0 50 0Z" fill="#27AE60"/>
<path d="M75.342 39.4047L48.2585 66.4875C47.4459 67.3 46.3793 67.709 45.3127 67.709C44.2462 67.709 43.1796 67.3 42.367 66.4875L28.8256 52.9461C27.196 51.3172 27.196 48.6835 28.8256 47.0547C30.4545 45.425 33.0874 45.425 34.717 47.0547L45.3127 57.6504L69.4506 33.5132C71.0795 31.8836 73.7124 31.8836 75.342 33.5132C76.9709 35.1421 76.9709 37.775 75.342 39.4047Z" fill="#FBFFFF"/>
</svg>
