<svg width="17" height="16" viewBox="0 0 17 16" fill="none" xmlns="http://www.w3.org/2000/svg">
<path d="M6.37358 5.08931L2.5343 1.25H4.99414C5.33933 1.25 5.61914 0.970187 5.61914 0.625C5.61914 0.279813 5.33933 0 4.99414 0H2.27539C1.24152 0 0.400391 0.841125 0.400391 1.875V4.59375C0.400391 4.93894 0.680203 5.21875 1.02539 5.21875C1.37058 5.21875 1.65039 4.93894 1.65039 4.59375V2.13391L5.4897 5.97322C5.61173 6.09525 5.77167 6.15625 5.93164 6.15625C6.09161 6.15625 6.25155 6.09525 6.37358 5.97322C6.61767 5.72913 6.61767 5.33337 6.37358 5.08931Z" fill="#878787"/>
<path d="M6.37358 10.0268C6.12948 9.78275 5.73377 9.78272 5.4897 10.0268L1.65039 13.8661V11.4062C1.65039 11.0611 1.37058 10.7813 1.02539 10.7813C0.680203 10.7813 0.400391 11.0611 0.400391 11.4062V14.125C0.400391 15.1589 1.24152 16 2.27539 16H4.99414C5.33933 16 5.61914 15.7202 5.61914 15.375C5.61914 15.0298 5.33933 14.75 4.99414 14.75H2.5343L6.37358 10.9107C6.61767 10.6666 6.61767 10.2709 6.37358 10.0268Z" fill="#878787"/>
<path d="M15.7754 10.7813C15.4302 10.7813 15.1504 11.0611 15.1504 11.4063V13.8662L11.3111 10.0268C11.067 9.78273 10.6713 9.78273 10.4272 10.0268C10.1831 10.2709 10.1831 10.6667 10.4272 10.9107L14.2665 14.7501H11.8066C11.4614 14.7501 11.1816 15.0299 11.1816 15.3751C11.1816 15.7203 11.4614 16.0001 11.8066 16.0001H14.5254C15.5593 16.0001 16.4004 15.1589 16.4004 14.1251V11.4063C16.4004 11.0611 16.1206 10.7813 15.7754 10.7813Z" fill="#878787"/>
<path d="M14.5254 0H11.8066C11.4615 0 11.1816 0.279813 11.1816 0.625C11.1816 0.970187 11.4615 1.25 11.8066 1.25H14.2665L10.4272 5.08928C10.1831 5.33337 10.1831 5.72913 10.4272 5.97319C10.5492 6.09525 10.7092 6.15625 10.8691 6.15625C11.0291 6.15625 11.1891 6.09525 11.3111 5.97322L15.1504 2.13391V4.59375C15.1504 4.93894 15.4302 5.21875 15.7754 5.21875C16.1206 5.21875 16.4004 4.93894 16.4004 4.59375V1.875C16.4004 0.841125 15.5593 0 14.5254 0Z" fill="#878787"/>
</svg>
