<svg width="18" height="18" viewBox="0 0 18 15" fill="none" xmlns="http://www.w3.org/2000/svg">
<path d="M17.5 1H0.5C0.367392 1 0.240215 0.947321 0.146447 0.853553C0.0526784 0.759785 0 0.632608 0 0.5C0 0.367392 0.0526784 0.240215 0.146447 0.146447C0.240215 0.0526785 0.367392 0 0.5 0H17.5C17.6326 0 17.7598 0.0526785 17.8536 0.146447C17.9473 0.240215 18 0.367392 18 0.5C18 0.632608 17.9473 0.759785 17.8536 0.853553C17.7598 0.947321 17.6326 1 17.5 1Z" fill="#145388"/>
<path d="M17.5 8H0.5C0.367392 8 0.240215 7.94732 0.146447 7.85355C0.0526784 7.75979 0 7.63261 0 7.5C0 7.36739 0.0526784 7.24021 0.146447 7.14645C0.240215 7.05268 0.367392 7 0.5 7H17.5C17.6326 7 17.7598 7.05268 17.8536 7.14645C17.9473 7.24021 18 7.36739 18 7.5C18 7.63261 17.9473 7.75979 17.8536 7.85355C17.7598 7.94732 17.6326 8 17.5 8Z" fill="#145388"/>
<path d="M17.5 15H0.5C0.367392 15 0.240215 14.9473 0.146447 14.8536C0.0526784 14.7598 0 14.6326 0 14.5C0 14.3674 0.0526784 14.2402 0.146447 14.1464C0.240215 14.0527 0.367392 14 0.5 14H17.5C17.6326 14 17.7598 14.0527 17.8536 14.1464C17.9473 14.2402 18 14.3674 18 14.5C18 14.6326 17.9473 14.7598 17.8536 14.8536C17.7598 14.9473 17.6326 15 17.5 15Z" fill="#145388"/>
</svg>
