<svg width="16" height="16" viewBox="0 0 16 16" fill="none" xmlns="http://www.w3.org/2000/svg">
<path d="M8.00939 2.30785C8.26429 2.30785 8.47093 2.10121 8.47093 1.84631C8.47093 1.5914 8.26429 1.38477 8.00939 1.38477C7.75449 1.38477 7.54785 1.5914 7.54785 1.84631C7.54785 2.10121 7.75449 2.30785 8.00939 2.30785Z" fill="#145388"/>
<path d="M14.1539 3.69229C14.1539 3.01255 13.6029 2.46151 12.9232 2.46151H11.2145C10.9866 2.20832 10.6938 2.01459 10.3575 1.91782C10.0741 1.83636 9.85604 1.61828 9.77454 1.33493C9.5528 0.563964 8.8423 0 8.00003 0C7.15779 0 6.44733 0.563964 6.22564 1.33485C6.14402 1.61855 5.9254 1.83636 5.64171 1.91809C5.30571 2.01493 5.01321 2.20847 4.78547 2.46151H3.07697C2.39719 2.46151 1.84619 3.01255 1.84619 3.69229V14.7692C1.84619 15.449 2.39719 16 3.07697 16C5.9026 16 9.37538 16 12.9232 16C13.6029 16 14.1539 15.449 14.1539 14.7692C14.1539 11.2739 14.1539 7.92681 14.1539 3.69229ZM4.92317 3.6824C4.9274 3.1414 5.29294 2.65909 5.81209 2.50947C6.30094 2.36863 6.6766 1.99309 6.81698 1.50501C6.96768 0.981159 7.45414 0.615388 8.00003 0.615388C8.54595 0.615388 9.03242 0.981159 9.18303 1.50501C9.3235 1.99339 9.69892 2.36882 10.1873 2.50924C10.7111 2.6599 11.0769 3.1464 11.0769 3.69225V4.30764H4.92317V3.6824ZM12.9232 15.3846C9.63642 15.3846 6.35506 15.3846 3.07697 15.3846C2.73762 15.3846 2.46158 15.1085 2.46158 14.7692V3.69229C2.46158 3.35298 2.73762 3.0769 3.07697 3.0769H4.4132C4.34666 3.26505 4.30943 3.46702 4.30782 3.67756V4.92306H11.6924V3.69229C11.6924 3.47632 11.6542 3.26955 11.5861 3.0769H12.9232C13.2625 3.0769 13.5385 3.35298 13.5385 3.69229C13.5385 5.45164 13.5385 13.7021 13.5386 14.7692C13.5386 15.1085 13.2625 15.3846 12.9232 15.3846Z" fill="#145388"/>
<path d="M10.5581 7.48047L6.85938 11.1792L5.22906 9.54886L4.79395 9.98402L6.85938 12.0495L10.9932 7.91563L10.5581 7.48047Z" fill="#145388"/>
</svg>
